<mxfile host="app.diagrams.net" agent="Mozilla/5.0 (Windows NT 10.0; Win64; x64) AppleWebKit/537.36 (KHTML, like Gecko) Chrome/132.0.0.0 Safari/537.36 Edg/132.0.0.0" version="26.0.6">
  <diagram name="第 1 页" id="v4usjETnbqQm_OO_6DK_">
    <mxGraphModel dx="2415" dy="1675" grid="1" gridSize="10" guides="1" tooltips="1" connect="1" arrows="1" fold="1" page="0" pageScale="1" pageWidth="827" pageHeight="1169" math="0" shadow="0">
      <root>
        <mxCell id="0" />
        <mxCell id="1" parent="0" />
        <mxCell id="kNrqUs09c-hF6-AuiJO1-3" style="edgeStyle=orthogonalEdgeStyle;rounded=0;orthogonalLoop=1;jettySize=auto;html=1;exitX=0.5;exitY=1;exitDx=0;exitDy=0;entryX=0.5;entryY=0;entryDx=0;entryDy=0;" parent="1" source="kNrqUs09c-hF6-AuiJO1-1" target="kNrqUs09c-hF6-AuiJO1-2" edge="1">
          <mxGeometry relative="1" as="geometry" />
        </mxCell>
        <mxCell id="kNrqUs09c-hF6-AuiJO1-1" value="START Q1" style="ellipse;whiteSpace=wrap;html=1;" parent="1" vertex="1">
          <mxGeometry x="-427.5" y="-370" width="90" height="50" as="geometry" />
        </mxCell>
        <mxCell id="kNrqUs09c-hF6-AuiJO1-6" style="edgeStyle=orthogonalEdgeStyle;rounded=0;orthogonalLoop=1;jettySize=auto;html=1;exitX=0.5;exitY=1;exitDx=0;exitDy=0;entryX=0.5;entryY=0;entryDx=0;entryDy=0;" parent="1" source="kNrqUs09c-hF6-AuiJO1-2" target="kNrqUs09c-hF6-AuiJO1-5" edge="1">
          <mxGeometry relative="1" as="geometry" />
        </mxCell>
        <mxCell id="kNrqUs09c-hF6-AuiJO1-2" value="DISPLAY (&quot;Hello Good Day&quot;)" style="shape=parallelogram;perimeter=parallelogramPerimeter;whiteSpace=wrap;html=1;fixedSize=1;" parent="1" vertex="1">
          <mxGeometry x="-510" y="-290" width="255" height="40" as="geometry" />
        </mxCell>
        <mxCell id="kNrqUs09c-hF6-AuiJO1-5" value="END Q1" style="ellipse;whiteSpace=wrap;html=1;" parent="1" vertex="1">
          <mxGeometry x="-427.5" y="-220" width="90" height="50" as="geometry" />
        </mxCell>
        <mxCell id="kNrqUs09c-hF6-AuiJO1-16" value="Question 1" style="text;html=1;align=center;verticalAlign=middle;whiteSpace=wrap;rounded=0;fontStyle=5;fontSize=16;" parent="1" vertex="1">
          <mxGeometry x="-436.25" y="-420" width="107.5" height="30" as="geometry" />
        </mxCell>
        <mxCell id="kNrqUs09c-hF6-AuiJO1-18" value="" style="rounded=0;whiteSpace=wrap;html=1;" parent="1" vertex="1">
          <mxGeometry x="230" y="-750" width="360" height="230" as="geometry" />
        </mxCell>
        <mxCell id="kNrqUs09c-hF6-AuiJO1-19" value="INPUT / OUTPUT" style="shape=parallelogram;perimeter=parallelogramPerimeter;whiteSpace=wrap;html=1;fixedSize=1;" parent="1" vertex="1">
          <mxGeometry x="255" y="-640" width="130" height="60" as="geometry" />
        </mxCell>
        <mxCell id="kNrqUs09c-hF6-AuiJO1-20" value="PROCESS" style="rounded=0;whiteSpace=wrap;html=1;" parent="1" vertex="1">
          <mxGeometry x="415" y="-730" width="120" height="60" as="geometry" />
        </mxCell>
        <mxCell id="kNrqUs09c-hF6-AuiJO1-21" style="edgeStyle=orthogonalEdgeStyle;rounded=0;orthogonalLoop=1;jettySize=auto;html=1;exitX=1;exitY=0.5;exitDx=0;exitDy=0;" parent="1" source="kNrqUs09c-hF6-AuiJO1-23" edge="1">
          <mxGeometry relative="1" as="geometry">
            <mxPoint x="565" y="-609.9487179487179" as="targetPoint" />
          </mxGeometry>
        </mxCell>
        <mxCell id="kNrqUs09c-hF6-AuiJO1-22" style="edgeStyle=orthogonalEdgeStyle;rounded=0;orthogonalLoop=1;jettySize=auto;html=1;exitX=0.5;exitY=1;exitDx=0;exitDy=0;" parent="1" source="kNrqUs09c-hF6-AuiJO1-23" edge="1">
          <mxGeometry relative="1" as="geometry">
            <mxPoint x="474.948717948718" y="-530" as="targetPoint" />
          </mxGeometry>
        </mxCell>
        <mxCell id="kNrqUs09c-hF6-AuiJO1-23" value="IF" style="rhombus;whiteSpace=wrap;html=1;" parent="1" vertex="1">
          <mxGeometry x="435" y="-650" width="80" height="80" as="geometry" />
        </mxCell>
        <mxCell id="kNrqUs09c-hF6-AuiJO1-24" value="START / END" style="ellipse;whiteSpace=wrap;html=1;" parent="1" vertex="1">
          <mxGeometry x="260" y="-740" width="120" height="80" as="geometry" />
        </mxCell>
        <mxCell id="kNrqUs09c-hF6-AuiJO1-25" value="Note:" style="text;html=1;align=left;verticalAlign=middle;whiteSpace=wrap;rounded=0;fontStyle=1;fontSize=16;" parent="1" vertex="1">
          <mxGeometry x="230" y="-780" width="60" height="30" as="geometry" />
        </mxCell>
        <mxCell id="kNrqUs09c-hF6-AuiJO1-26" style="edgeStyle=orthogonalEdgeStyle;rounded=0;orthogonalLoop=1;jettySize=auto;html=1;exitX=0.5;exitY=1;exitDx=0;exitDy=0;entryX=0.5;entryY=0;entryDx=0;entryDy=0;" parent="1" source="kNrqUs09c-hF6-AuiJO1-27" edge="1">
          <mxGeometry relative="1" as="geometry">
            <mxPoint x="-72.5" y="-290" as="targetPoint" />
          </mxGeometry>
        </mxCell>
        <mxCell id="kNrqUs09c-hF6-AuiJO1-27" value="START Q2" style="ellipse;whiteSpace=wrap;html=1;" parent="1" vertex="1">
          <mxGeometry x="-117.5" y="-370" width="90" height="50" as="geometry" />
        </mxCell>
        <mxCell id="kNrqUs09c-hF6-AuiJO1-35" style="edgeStyle=orthogonalEdgeStyle;rounded=0;orthogonalLoop=1;jettySize=auto;html=1;exitX=0.5;exitY=1;exitDx=0;exitDy=0;entryX=0.5;entryY=0;entryDx=0;entryDy=0;" parent="1" target="kNrqUs09c-hF6-AuiJO1-34" edge="1">
          <mxGeometry relative="1" as="geometry">
            <mxPoint x="-72.5" y="-240" as="sourcePoint" />
          </mxGeometry>
        </mxCell>
        <mxCell id="kNrqUs09c-hF6-AuiJO1-31" value="Question 2" style="text;html=1;align=center;verticalAlign=middle;whiteSpace=wrap;rounded=0;fontStyle=5;fontSize=16;" parent="1" vertex="1">
          <mxGeometry x="-126.25" y="-420" width="107.5" height="30" as="geometry" />
        </mxCell>
        <mxCell id="kNrqUs09c-hF6-AuiJO1-37" style="edgeStyle=orthogonalEdgeStyle;rounded=0;orthogonalLoop=1;jettySize=auto;html=1;exitX=0.5;exitY=1;exitDx=0;exitDy=0;entryX=0.5;entryY=0;entryDx=0;entryDy=0;" parent="1" source="kNrqUs09c-hF6-AuiJO1-34" edge="1">
          <mxGeometry relative="1" as="geometry">
            <mxPoint x="-72.50000000000023" y="-140.00000000000023" as="targetPoint" />
          </mxGeometry>
        </mxCell>
        <mxCell id="kNrqUs09c-hF6-AuiJO1-34" value="DISPLAY (num)" style="shape=parallelogram;perimeter=parallelogramPerimeter;whiteSpace=wrap;html=1;fixedSize=1;" parent="1" vertex="1">
          <mxGeometry x="-200" y="-205" width="255" height="40" as="geometry" />
        </mxCell>
        <mxCell id="kNrqUs09c-hF6-AuiJO1-36" value="END Q2" style="ellipse;whiteSpace=wrap;html=1;" parent="1" vertex="1">
          <mxGeometry x="-117.5" y="-140" width="90" height="50" as="geometry" />
        </mxCell>
        <mxCell id="kNrqUs09c-hF6-AuiJO1-38" style="edgeStyle=orthogonalEdgeStyle;rounded=0;orthogonalLoop=1;jettySize=auto;html=1;exitX=0.5;exitY=1;exitDx=0;exitDy=0;entryX=0.5;entryY=0;entryDx=0;entryDy=0;" parent="1" source="kNrqUs09c-hF6-AuiJO1-39" edge="1">
          <mxGeometry relative="1" as="geometry">
            <mxPoint x="227.49999999999977" y="-290" as="targetPoint" />
          </mxGeometry>
        </mxCell>
        <mxCell id="kNrqUs09c-hF6-AuiJO1-39" value="START Q3" style="ellipse;whiteSpace=wrap;html=1;" parent="1" vertex="1">
          <mxGeometry x="182.5" y="-370" width="90" height="50" as="geometry" />
        </mxCell>
        <mxCell id="kNrqUs09c-hF6-AuiJO1-40" style="edgeStyle=orthogonalEdgeStyle;rounded=0;orthogonalLoop=1;jettySize=auto;html=1;exitX=0.5;exitY=1;exitDx=0;exitDy=0;entryX=0.5;entryY=0;entryDx=0;entryDy=0;" parent="1" edge="1">
          <mxGeometry relative="1" as="geometry">
            <mxPoint x="227.49999999999977" y="-250" as="sourcePoint" />
            <mxPoint x="227.49999999999977" y="-215" as="targetPoint" />
          </mxGeometry>
        </mxCell>
        <mxCell id="kNrqUs09c-hF6-AuiJO1-42" value="Question 3" style="text;html=1;align=center;verticalAlign=middle;whiteSpace=wrap;rounded=0;fontStyle=5;fontSize=16;" parent="1" vertex="1">
          <mxGeometry x="173.75" y="-420" width="107.5" height="30" as="geometry" />
        </mxCell>
        <mxCell id="kNrqUs09c-hF6-AuiJO1-43" style="edgeStyle=orthogonalEdgeStyle;rounded=0;orthogonalLoop=1;jettySize=auto;html=1;exitX=0.5;exitY=1;exitDx=0;exitDy=0;entryX=0.5;entryY=0;entryDx=0;entryDy=0;" parent="1" edge="1">
          <mxGeometry relative="1" as="geometry">
            <mxPoint x="227.49999999999977" y="-45.00000000000023" as="sourcePoint" />
            <mxPoint x="227.49999999999977" y="-20" as="targetPoint" />
          </mxGeometry>
        </mxCell>
        <mxCell id="kNrqUs09c-hF6-AuiJO1-46" value="&lt;div&gt;SET num AS INT&lt;/div&gt;num = 10" style="rounded=0;whiteSpace=wrap;html=1;" parent="1" vertex="1">
          <mxGeometry x="-158.75" y="-290" width="172.5" height="50" as="geometry" />
        </mxCell>
        <mxCell id="kNrqUs09c-hF6-AuiJO1-47" value="&lt;div&gt;SET num AS INT&lt;/div&gt;" style="rounded=0;whiteSpace=wrap;html=1;" parent="1" vertex="1">
          <mxGeometry x="141.25" y="-290" width="172.5" height="50" as="geometry" />
        </mxCell>
        <mxCell id="kNrqUs09c-hF6-AuiJO1-50" style="edgeStyle=orthogonalEdgeStyle;rounded=0;orthogonalLoop=1;jettySize=auto;html=1;exitX=0.5;exitY=1;exitDx=0;exitDy=0;entryX=0.5;entryY=0;entryDx=0;entryDy=0;" parent="1" target="kNrqUs09c-hF6-AuiJO1-49" edge="1">
          <mxGeometry relative="1" as="geometry">
            <mxPoint x="227.5" y="-110" as="sourcePoint" />
          </mxGeometry>
        </mxCell>
        <mxCell id="kNrqUs09c-hF6-AuiJO1-48" value="DISPLAY (&quot;Please enter your number: &quot;)" style="shape=parallelogram;perimeter=parallelogramPerimeter;whiteSpace=wrap;html=1;fixedSize=1;" parent="1" vertex="1">
          <mxGeometry x="100" y="-215" width="255" height="40" as="geometry" />
        </mxCell>
        <mxCell id="kNrqUs09c-hF6-AuiJO1-49" value="DISPLAY (num)" style="shape=parallelogram;perimeter=parallelogramPerimeter;whiteSpace=wrap;html=1;fixedSize=1;" parent="1" vertex="1">
          <mxGeometry x="100" y="-85" width="255" height="40" as="geometry" />
        </mxCell>
        <mxCell id="kNrqUs09c-hF6-AuiJO1-51" value="END Q3" style="ellipse;whiteSpace=wrap;html=1;" parent="1" vertex="1">
          <mxGeometry x="182.5" y="-20" width="90" height="50" as="geometry" />
        </mxCell>
        <mxCell id="kNrqUs09c-hF6-AuiJO1-52" value="INPUT INTO num" style="shape=parallelogram;perimeter=parallelogramPerimeter;whiteSpace=wrap;html=1;fixedSize=1;" parent="1" vertex="1">
          <mxGeometry x="90" y="-150" width="255" height="40" as="geometry" />
        </mxCell>
        <mxCell id="kNrqUs09c-hF6-AuiJO1-53" style="edgeStyle=orthogonalEdgeStyle;rounded=0;orthogonalLoop=1;jettySize=auto;html=1;exitX=0.5;exitY=1;exitDx=0;exitDy=0;entryX=0.544;entryY=0.054;entryDx=0;entryDy=0;entryPerimeter=0;" parent="1" source="kNrqUs09c-hF6-AuiJO1-48" target="kNrqUs09c-hF6-AuiJO1-52" edge="1">
          <mxGeometry relative="1" as="geometry" />
        </mxCell>
        <mxCell id="kNrqUs09c-hF6-AuiJO1-67" style="edgeStyle=orthogonalEdgeStyle;rounded=0;orthogonalLoop=1;jettySize=auto;html=1;exitX=0.5;exitY=1;exitDx=0;exitDy=0;entryX=0.5;entryY=0;entryDx=0;entryDy=0;" parent="1" source="kNrqUs09c-hF6-AuiJO1-68" edge="1">
          <mxGeometry relative="1" as="geometry">
            <mxPoint x="587.4999999999998" y="-290" as="targetPoint" />
          </mxGeometry>
        </mxCell>
        <mxCell id="kNrqUs09c-hF6-AuiJO1-68" value="START Q4" style="ellipse;whiteSpace=wrap;html=1;" parent="1" vertex="1">
          <mxGeometry x="542.5" y="-370" width="90" height="50" as="geometry" />
        </mxCell>
        <mxCell id="kNrqUs09c-hF6-AuiJO1-70" value="Question 4" style="text;html=1;align=center;verticalAlign=middle;whiteSpace=wrap;rounded=0;fontStyle=5;fontSize=16;" parent="1" vertex="1">
          <mxGeometry x="533.75" y="-420" width="107.5" height="30" as="geometry" />
        </mxCell>
        <mxCell id="kNrqUs09c-hF6-AuiJO1-79" style="edgeStyle=orthogonalEdgeStyle;rounded=0;orthogonalLoop=1;jettySize=auto;html=1;exitX=0.5;exitY=1;exitDx=0;exitDy=0;entryX=0.5;entryY=0;entryDx=0;entryDy=0;" parent="1" source="kNrqUs09c-hF6-AuiJO1-74" target="kNrqUs09c-hF6-AuiJO1-76" edge="1">
          <mxGeometry relative="1" as="geometry" />
        </mxCell>
        <mxCell id="kNrqUs09c-hF6-AuiJO1-74" value="DISPLAY (&quot;Welcome to a student registration system \n \t 1. Register \n \t 2. Update \n \t 3. Delete \n \t 4. Exit&quot;)" style="shape=parallelogram;perimeter=parallelogramPerimeter;whiteSpace=wrap;html=1;fixedSize=1;" parent="1" vertex="1">
          <mxGeometry x="419.38" y="-290" width="357.5" height="70" as="geometry" />
        </mxCell>
        <mxCell id="kNrqUs09c-hF6-AuiJO1-76" value="END Q4" style="ellipse;whiteSpace=wrap;html=1;" parent="1" vertex="1">
          <mxGeometry x="542.5" y="-190" width="90" height="50" as="geometry" />
        </mxCell>
        <mxCell id="kNrqUs09c-hF6-AuiJO1-80" style="edgeStyle=orthogonalEdgeStyle;rounded=0;orthogonalLoop=1;jettySize=auto;html=1;exitX=0.5;exitY=1;exitDx=0;exitDy=0;entryX=0.5;entryY=0;entryDx=0;entryDy=0;" parent="1" source="kNrqUs09c-hF6-AuiJO1-81" edge="1">
          <mxGeometry relative="1" as="geometry">
            <mxPoint x="1019.0599999999997" y="-290" as="targetPoint" />
          </mxGeometry>
        </mxCell>
        <mxCell id="kNrqUs09c-hF6-AuiJO1-81" value="START Q5" style="ellipse;whiteSpace=wrap;html=1;" parent="1" vertex="1">
          <mxGeometry x="974.06" y="-370" width="90" height="50" as="geometry" />
        </mxCell>
        <mxCell id="kNrqUs09c-hF6-AuiJO1-83" value="Question 5" style="text;html=1;align=center;verticalAlign=middle;whiteSpace=wrap;rounded=0;fontStyle=5;fontSize=16;" parent="1" vertex="1">
          <mxGeometry x="965.31" y="-420" width="107.5" height="30" as="geometry" />
        </mxCell>
        <mxCell id="qjM3ArbT5EGvpzjC1SZu-1" style="edgeStyle=orthogonalEdgeStyle;rounded=0;orthogonalLoop=1;jettySize=auto;html=1;exitX=0.5;exitY=1;exitDx=0;exitDy=0;entryX=0.5;entryY=0;entryDx=0;entryDy=0;" edge="1" parent="1" source="kNrqUs09c-hF6-AuiJO1-85" target="kNrqUs09c-hF6-AuiJO1-92">
          <mxGeometry relative="1" as="geometry" />
        </mxCell>
        <mxCell id="kNrqUs09c-hF6-AuiJO1-85" value="&lt;div&gt;SET&amp;nbsp;&lt;span style=&quot;background-color: transparent;&quot;&gt;name AS STRING&lt;/span&gt;&lt;/div&gt;&lt;div&gt;&lt;span style=&quot;white-space: normal;&quot;&gt;&lt;span style=&quot;white-space:pre&quot;&gt;&#x9;&#x9;&lt;/span&gt;tp_number AS STRING&lt;/span&gt;&lt;/div&gt;&lt;div&gt;&lt;span style=&quot;white-space: normal;&quot;&gt;&amp;nbsp; &amp;nbsp; &amp;nbsp; &amp;nbsp;mark AS STRING&lt;/span&gt;&lt;/div&gt;&lt;div&gt;&lt;span style=&quot;white-space: normal;&quot;&gt;&lt;span style=&quot;white-space:pre&quot;&gt;&#x9;&lt;/span&gt;&amp;nbsp;grade AS STRING&lt;/span&gt;&lt;/div&gt;&lt;div&gt;&lt;span style=&quot;white-space: normal;&quot;&gt;&amp;nbsp; &amp;nbsp; &amp;nbsp; &amp;nbsp;cgpa AS STRING&lt;/span&gt;&lt;/div&gt;" style="rounded=0;whiteSpace=wrap;html=1;" parent="1" vertex="1">
          <mxGeometry x="904.69" y="-290" width="228.75" height="100" as="geometry" />
        </mxCell>
        <mxCell id="qjM3ArbT5EGvpzjC1SZu-2" style="edgeStyle=orthogonalEdgeStyle;rounded=0;orthogonalLoop=1;jettySize=auto;html=1;exitX=0.5;exitY=1;exitDx=0;exitDy=0;" edge="1" parent="1" source="kNrqUs09c-hF6-AuiJO1-92">
          <mxGeometry relative="1" as="geometry">
            <mxPoint x="1019.1963636363639" y="30" as="targetPoint" />
          </mxGeometry>
        </mxCell>
        <mxCell id="kNrqUs09c-hF6-AuiJO1-92" value="DISPLAY (&quot;Please enter your name: &quot;)&lt;div&gt;INPUT INTO name&lt;/div&gt;&lt;div&gt;DISPLAY (&quot;Please enter your TP Number: &quot;)&lt;/div&gt;&lt;div&gt;INPUT INTO tp_number&lt;/div&gt;&lt;div&gt;DISPLAY (&quot;Please enter your marks: &quot;)&lt;/div&gt;&lt;div&gt;INPUT INTO mark&lt;/div&gt;&lt;div&gt;DISPLAY (&quot;Please enter your grade: &quot;)&lt;/div&gt;&lt;div&gt;INPUT INTO grade&lt;/div&gt;&lt;div&gt;DISPLAY (&quot;Please enter your CGPA: &quot;)&lt;/div&gt;&lt;div&gt;INPUT INTO cgpa&lt;/div&gt;" style="shape=parallelogram;perimeter=parallelogramPerimeter;whiteSpace=wrap;html=1;fixedSize=1;" parent="1" vertex="1">
          <mxGeometry x="874.06" y="-165" width="290" height="165" as="geometry" />
        </mxCell>
        <mxCell id="qjM3ArbT5EGvpzjC1SZu-3" value="DISPLAY (&quot;Name: &quot; + name + &quot;\nTP Number: &quot;+ tp_number + &quot;\nMarks: &quot; + mark + &quot;\nGrade: &quot; + grade + &quot;\nCGPA: &quot; + cgpa&quot;)" style="shape=parallelogram;perimeter=parallelogramPerimeter;whiteSpace=wrap;html=1;fixedSize=1;" vertex="1" parent="1">
          <mxGeometry x="830" y="30" width="378.12" height="60" as="geometry" />
        </mxCell>
        <mxCell id="qjM3ArbT5EGvpzjC1SZu-4" style="edgeStyle=orthogonalEdgeStyle;rounded=0;orthogonalLoop=1;jettySize=auto;html=1;exitX=0.5;exitY=1;exitDx=0;exitDy=0;entryX=0.5;entryY=0;entryDx=0;entryDy=0;" edge="1" parent="1" target="qjM3ArbT5EGvpzjC1SZu-5">
          <mxGeometry relative="1" as="geometry">
            <mxPoint x="1019.0699999999999" y="90" as="sourcePoint" />
          </mxGeometry>
        </mxCell>
        <mxCell id="qjM3ArbT5EGvpzjC1SZu-5" value="END Q5" style="ellipse;whiteSpace=wrap;html=1;" vertex="1" parent="1">
          <mxGeometry x="974.0699999999999" y="120" width="90" height="50" as="geometry" />
        </mxCell>
      </root>
    </mxGraphModel>
  </diagram>
</mxfile>
